<svg
  width="20"
  height="20"
  viewBox="0 0 20 20"
  fill="none"
  xmlns="http://www.w3.org/2000/svg"
>
  <path d="M20 0H0V20H20V0Z" fill="white" fill-opacity="0.01" />
  <path
    d="M10.0001 18.3332C12.3012 18.3332 14.3846 17.4004 15.8926 15.8924C17.4007 14.3843 18.3334 12.301 18.3334 9.99984C18.3334 7.69867 17.4007 5.61534 15.8926 4.10728C14.3846 2.59925 12.3012 1.6665 10.0001 1.6665C7.69891 1.6665 5.61558 2.59925 4.10752 4.10728C2.59949 5.61534 1.66675 7.69867 1.66675 9.99984C1.66675 12.301 2.59949 14.3843 4.10752 15.8924C5.61558 17.4004 7.69891 18.3332 10.0001 18.3332Z"
    stroke="red"
    stroke-width="1.25"
    stroke-linejoin="round"
  />
  <path
    fill-rule="evenodd"
    clip-rule="evenodd"
    d="M9.99992 4.5835C10.5752 4.5835 11.0416 5.04987 11.0416 5.62516C11.0416 6.20045 10.5752 6.66683 9.99992 6.66683C9.42463 6.66683 8.95825 6.20045 8.95825 5.62516C8.95825 5.04987 9.42463 4.5835 9.99992 4.5835Z"
    fill="red"
  />
  <path
    d="M10.2083 14.1668V8.3335H9.79167H9.375"
    stroke="red"
    stroke-width="1.25"
    stroke-linecap="round"
    stroke-linejoin="round"
  />
  <path
    d="M8.75 14.1665H11.6667"
    stroke="red"
    stroke-width="1.25"
    stroke-linecap="round"
    stroke-linejoin="round"
  />
</svg>
